<?xml version="1.0" encoding="utf-8"?><svg xml:space="preserve" viewBox="0 0 100 100" y="0px" x="0px" xmlns:xlink="http://www.w3.org/1999/xlink" xmlns="http://www.w3.org/2000/svg" id="圖層_1" version="1.1" width="200px" height="200px" style="width:100%;height:100%;background-size:initial;background-repeat:initial;background-position-y:initial;background-position-x:initial;background-origin:initial;background-image:initial;background-color:rgb(255, 255, 255);background-clip:initial;background-attachment:initial;animation-play-state:paused" ><g class="ldl-scale" style="transform-origin:50% 50%;transform:rotate(0deg) scale(0.8, 0.8);animation-play-state:paused" ><g style="animation-play-state:paused" ><path d="M31.2,23.2h-8.4c-0.5,19.4-2.1,33.1-3.7,37.7v0l15.8,0l0,0C33.3,56.3,31.8,42.5,31.2,23.2z" fill="#E15B64" style="fill:rgb(225, 91, 100);animation-play-state:paused" ></path>
<polygon points="37.8,76.8 14.2,76.8 14.2,59.6 37.8,52.9" fill="#E0E0E0" style="fill:rgb(224, 224, 224);animation-play-state:paused" ></polygon>
<polygon points="11.8,54 11.8,60.8 40.5,52.7 40.5,45" fill="#F47E60" style="fill:rgb(244, 126, 96);animation-play-state:paused" ></polygon>
<rect height="7.2" width="5.7" fill="#A0C8D7" y="63.2" x="18.4" style="fill:rgb(160, 200, 215);animation-play-state:paused" ></rect>
<rect height="7.2" width="5.7" fill="#A0C8D7" y="63.2" x="27.6" style="fill:rgb(160, 200, 215);animation-play-state:paused" ></rect></g>
<g style="animation-play-state:paused" ><polygon points="61.3,76.8 37.8,76.8 37.8,59.6 61.3,52.9" fill="#E0E0E0" style="fill:rgb(224, 224, 224);animation-play-state:paused" ></polygon>
<polygon points="35.4,54 35.4,60.8 64.1,52.7 64.1,45" fill="#F47E60" style="fill:rgb(244, 126, 96);animation-play-state:paused" ></polygon>
<rect height="7.2" width="5.7" fill="#A0C8D7" y="63.2" x="42" style="fill:rgb(160, 200, 215);animation-play-state:paused" ></rect>
<rect height="7.2" width="5.7" fill="#A0C8D7" y="63.2" x="51.2" style="fill:rgb(160, 200, 215);animation-play-state:paused" ></rect></g>
<g style="animation-play-state:paused" ><polygon points="84.9,76.8 61.3,76.8 61.3,59.6 84.9,52.9" fill="#E0E0E0" style="fill:rgb(224, 224, 224);animation-play-state:paused" ></polygon>
<polygon points="58.9,54 58.9,60.8 87.6,52.7 87.6,45" fill="#F47E60" style="fill:rgb(244, 126, 96);animation-play-state:paused" ></polygon>
<rect height="14.5" width="9.4" fill="#A0C8D7" y="62" x="67.6" style="fill:rgb(160, 200, 215);animation-play-state:paused" ></rect></g>
<line y2="76.6" x2="90" y1="76.6" x1="10" stroke-miterlimit="10" stroke-linecap="round" stroke-width="3" stroke="#E0E0E0" fill="none" style="stroke:rgb(224, 224, 224);animation-play-state:paused" ></line>
<metadata xmlns:d="https://loading.io/stock/" style="animation-play-state:paused" ><d:name style="animation-play-state:paused" >factory</d:name>


<d:tags style="animation-play-state:paused" >building,industry,manufacturer,power plant,work,firm,foundry,workshop</d:tags>


<d:license style="animation-play-state:paused" >by</d:license>


<d:slug style="animation-play-state:paused" >7lgcad</d:slug></metadata></g><!-- generated by https://loading.io/ --></svg>